<?xml version="1.0" standalone="no"?>
<!DOCTYPE svg PUBLIC "-//W3C//DTD SVG 20010904//EN"
 "http://www.w3.org/TR/2001/REC-SVG-20010904/DTD/svg10.dtd">
<svg version="1.0" xmlns="http://www.w3.org/2000/svg"
 width="260.000000pt" height="260.000000pt" viewBox="0 0 260.000000 260.000000"
 preserveAspectRatio="xMidYMid meet">
<metadata>
Created by potrace 1.14, written by Peter Selinger 2001-2017
</metadata>
<g transform="translate(0.000000,260.000000) scale(0.100000,-0.100000)"
fill="#000000" stroke="none">
<path d="M1150 2426 c-20 -32 -36 -42 -63 -37 -5 1 -6 -3 -2 -9 3 -6 11 -7 17
-4 7 4 8 2 4 -4 -4 -7 -15 -12 -24 -13 -13 0 -13 -2 -3 -6 9 -4 2 -11 -20 -20
-27 -11 -31 -16 -19 -23 11 -7 11 -10 2 -10 -9 0 -10 -5 -3 -18 13 -25 -5 -57
-24 -42 -10 8 -15 8 -21 -1 -5 -8 -3 -10 7 -5 8 4 6 1 -4 -7 -24 -20 -24 -21
-7 -42 14 -17 13 -18 -5 -12 -20 7 -20 7 -1 -8 11 -8 14 -15 8 -15 -8 0 -10
-9 -6 -26 6 -21 4 -25 -7 -19 -8 5 -5 -1 5 -13 16 -18 22 -20 35 -10 9 7 13 8
9 4 -4 -5 0 -14 9 -21 13 -9 13 -14 3 -20 -9 -6 -11 -4 -5 5 6 9 4 11 -5 5
-10 -6 -9 -11 5 -22 11 -7 14 -13 9 -13 -6 0 -11 -7 -11 -15 0 -8 7 -15 14
-15 8 0 11 -4 8 -10 -3 -5 3 -10 14 -10 13 0 21 -6 21 -18 0 -9 9 -23 21 -30
17 -11 20 -11 14 0 -3 7 1 4 9 -6 9 -11 16 -26 16 -33 0 -7 9 -13 20 -13 18 0
25 -11 21 -33 -1 -5 3 -6 9 -2 5 3 10 -2 10 -12 0 -15 2 -16 10 -3 8 12 10 11
10 -7 0 -12 4 -25 10 -28 6 -4 7 1 3 12 -3 10 -3 15 1 11 13 -11 14 -43 2 -50
-7 -5 -6 -8 3 -8 11 0 10 -4 -5 -16 -10 -8 -13 -12 -5 -8 9 4 12 3 8 -4 -8
-12 -44 -9 -39 3 2 5 -3 12 -12 17 -9 5 -14 13 -11 19 4 5 0 9 -7 10 -7 1 -22
2 -33 3 -11 0 -27 -2 -36 -6 -8 -4 -21 -3 -29 2 -16 10 -43 -7 -34 -21 3 -5 0
-9 -6 -9 -6 0 -8 -5 -5 -11 4 -6 0 -9 -11 -7 -11 2 -18 -2 -16 -10 1 -7 -5
-15 -13 -18 -8 -4 -15 -12 -15 -20 0 -7 -6 -11 -13 -8 -23 8 -43 -24 -29 -46
9 -14 9 -21 0 -26 -7 -5 -8 -3 -3 6 5 9 4 11 -4 6 -9 -6 -9 -11 -1 -21 12 -15
-8 -28 -54 -34 -5 0 -3 -8 4 -16 10 -12 10 -15 -1 -15 -9 0 -10 -3 -3 -8 25
-16 10 -48 -20 -43 -5 1 -6 -5 -3 -13 4 -11 1 -13 -10 -9 -11 4 -14 2 -9 -5 4
-7 2 -12 -4 -12 -7 0 -8 -6 -1 -17 5 -10 5 -26 0 -41 -6 -15 -5 -21 1 -17 6 3
10 1 10 -4 0 -6 -5 -11 -10 -11 -7 0 -7 -6 0 -20 8 -15 8 -20 -2 -20 -8 0 -9
-3 -3 -8 12 -8 13 -42 2 -60 -5 -6 -6 -16 -2 -21 3 -5 1 -12 -5 -16 -5 -3 -10
-1 -10 4 0 6 -9 3 -20 -6 -13 -11 -16 -19 -9 -24 8 -4 7 -8 -2 -12 -12 -5 -12
-6 0 -6 11 -1 11 -4 0 -18 -8 -9 -9 -14 -2 -10 7 5 9 0 6 -14 -4 -16 -8 -17
-14 -7 -8 12 -13 4 -10 -15 1 -5 -3 -6 -9 -2 -17 11 -42 -15 -30 -30 6 -7 8
-24 5 -38 -5 -19 -12 -24 -27 -22 -17 4 -18 2 -6 -12 8 -10 8 -14 1 -10 -6 4
-14 3 -18 -3 -3 -5 0 -10 7 -10 10 0 10 -2 -1 -9 -7 -5 -11 -13 -8 -17 2 -5 1
-19 -4 -31 -6 -17 -14 -21 -34 -17 -20 3 -25 1 -19 -8 4 -7 -1 -5 -12 4 -12
11 -24 14 -33 8 -8 -4 -21 -6 -29 -2 -11 4 -13 1 -7 -8 6 -10 4 -11 -6 -4 -8
5 -25 10 -37 12 -17 2 -22 -1 -16 -10 4 -7 -2 -5 -13 5 -16 14 -23 15 -29 6
-5 -8 -3 -10 6 -4 9 5 11 4 6 -4 -6 -9 -11 -9 -23 1 -17 14 -46 20 -38 8 3 -4
-2 -11 -11 -14 -24 -9 -31 -7 -14 4 11 7 8 9 -15 8 -16 -1 -33 -7 -37 -13 -5
-6 -8 -6 -8 3 0 15 -32 16 -48 0 -9 -9 -16 -7 -31 6 -14 13 -21 14 -27 5 -5
-8 -3 -10 6 -4 9 6 11 4 6 -4 -6 -9 -13 -8 -29 6 -12 10 -17 12 -12 4 6 -11 4
-13 -10 -8 -11 5 -23 1 -32 -10 -8 -10 -12 -13 -9 -6 4 6 1 15 -6 19 -7 4 -10
4 -6 -1 9 -10 -19 -65 -33 -65 -6 0 -7 6 -3 13 5 8 4 9 -4 2 -17 -16 -21 -115
-5 -131 12 -12 12 -14 -1 -14 -12 0 -14 -5 -6 -25 5 -14 7 -25 4 -25 -2 0 1
-6 8 -14 10 -11 16 -11 27 -2 12 9 14 8 8 -6 -4 -13 1 -23 18 -34 14 -9 22
-21 18 -28 -4 -6 2 -4 13 4 10 8 16 10 11 5 -4 -4 1 -18 10 -29 17 -20 17 -20
-2 -6 -19 13 -19 13 -2 -6 14 -15 19 -16 26 -5 6 9 11 10 15 2 4 -6 12 -11 17
-11 6 0 7 5 3 11 -3 6 5 3 20 -6 24 -16 39 -34 16 -20 -6 3 -7 -1 -4 -9 3 -9
17 -16 29 -16 13 0 27 -5 31 -12 5 -8 10 -6 19 5 10 14 13 11 24 -20 10 -25
16 -32 24 -24 6 6 16 11 22 11 5 0 4 -4 -3 -9 -10 -6 -7 -10 12 -13 14 -3 23
-1 20 3 -2 5 11 7 29 6 36 -3 71 -29 59 -42 -4 -5 1 -5 10 -2 11 4 15 2 12 -6
-3 -8 7 -12 25 -12 16 -1 27 3 25 7 -8 12 11 9 24 -4 9 -9 12 -9 12 1 0 7 5 9
12 5 19 -12 48 -12 48 -1 0 5 8 3 17 -4 11 -10 14 -10 9 -1 -9 15 6 16 22 0 9
-9 12 -9 12 1 0 7 5 9 12 5 19 -12 48 -12 48 -1 0 5 8 3 17 -4 11 -10 14 -10
9 -1 -9 15 6 16 22 0 9 -9 12 -9 12 1 0 10 3 11 14 2 11 -9 16 -9 21 0 6 8 10
7 16 -2 7 -12 9 -12 9 0 0 11 3 11 17 0 13 -11 17 -11 20 -1 3 6 9 12 14 12 6
0 8 -4 5 -8 -2 -4 4 -8 14 -8 10 0 16 4 14 8 -8 12 11 9 24 -4 9 -9 12 -9 12
0 0 7 5 12 11 12 5 0 8 -4 5 -8 -2 -4 4 -8 14 -8 10 0 16 4 14 8 -8 12 11 9
24 -4 9 -9 12 -9 12 0 0 7 5 12 11 12 5 0 8 -4 5 -8 -2 -4 4 -8 14 -8 10 0 16
4 14 8 -8 12 11 9 24 -4 9 -9 12 -9 12 0 0 7 5 12 11 12 5 0 8 -4 5 -8 -2 -4
4 -8 14 -8 10 0 16 4 14 8 -6 10 26 6 44 -5 7 -5 12 -3 12 3 0 6 5 8 12 4 16
-10 58 -11 64 -2 3 4 10 8 15 8 6 0 8 -4 5 -8 -8 -13 31 -7 48 7 14 12 16 12
11 -1 -4 -10 0 -14 14 -13 11 1 24 4 27 8 10 10 26 9 20 -1 -6 -10 25 -9 42 2
7 4 12 2 12 -6 0 -10 3 -9 11 2 8 12 12 12 16 2 4 -10 8 -10 19 -1 11 9 14 8
14 -2 0 -8 6 -5 15 7 8 10 15 15 14 9 -3 -22 2 -27 16 -15 12 10 15 10 15 -1
0 -11 3 -11 11 1 8 12 12 12 16 2 4 -10 8 -10 19 -1 11 9 14 8 14 -2 0 -8 6
-5 15 7 8 10 15 15 14 9 -3 -22 2 -27 16 -15 12 10 15 10 15 -1 0 -11 2 -11
10 1 8 12 11 13 19 1 6 -10 10 -10 16 -1 6 9 10 9 16 -1 7 -12 9 -12 9 0 0 11
3 11 17 0 13 -11 17 -11 20 -1 3 6 9 12 14 12 6 0 8 -4 5 -8 -2 -4 4 -8 14 -8
10 0 16 4 14 8 -8 12 11 9 24 -4 9 -9 12 -9 12 0 0 7 5 12 11 12 5 0 8 -4 5
-8 -2 -4 4 -8 14 -8 10 0 16 4 14 8 -7 11 4 10 28 -3 16 -9 19 -8 13 2 -6 9
-3 11 9 6 12 -5 19 0 25 16 5 12 7 25 4 29 -2 5 8 4 22 -2 20 -8 27 -7 32 5 5
13 7 13 20 -2 8 -10 12 -13 9 -7 -3 7 4 12 19 12 14 0 22 -5 19 -10 -4 -6 3
-5 15 1 22 12 30 27 9 16 -7 -4 -5 0 4 8 10 8 15 17 11 20 -3 4 -1 7 6 7 7 0
9 4 6 10 -3 6 1 7 9 4 9 -3 13 -10 10 -15 -3 -5 2 -6 10 -3 9 3 13 11 10 16
-4 6 3 5 15 -1 15 -8 21 -9 21 -1 0 6 4 8 10 5 6 -3 7 1 4 9 -3 9 -1 16 6 16
6 0 9 4 5 9 -3 5 -1 12 5 16 5 3 10 1 10 -6 0 -8 5 -7 17 2 15 12 16 12 8 -1
-6 -12 -5 -12 5 -3 7 6 19 9 26 6 8 -3 14 0 14 7 0 6 5 8 13 4 9 -6 9 -5 -1 8
-17 22 10 47 32 29 12 -10 13 -8 9 8 -4 15 -1 21 10 21 9 0 19 4 22 10 3 6 -1
7 -12 4 -17 -5 -17 -5 0 6 9 6 22 8 27 5 7 -4 10 29 8 102 -3 99 -5 108 -22
105 -10 -2 -16 0 -13 5 6 10 -19 34 -27 25 -4 -3 -4 1 0 11 4 13 1 17 -14 17
-11 0 -23 -6 -25 -12 -4 -10 -6 -10 -6 0 -1 6 -6 12 -12 12 -5 0 -7 -6 -3 -12
4 -7 -2 -5 -13 5 -16 14 -23 15 -29 6 -5 -8 -3 -10 6 -4 9 6 11 4 6 -4 -6 -9
-13 -8 -29 6 -11 10 -17 12 -12 4 6 -10 2 -12 -15 -6 -17 6 -21 4 -15 -6 5 -8
0 -7 -11 3 -12 11 -24 14 -33 8 -8 -4 -21 -6 -29 -2 -11 4 -13 2 -7 -9 8 -12
6 -12 -8 0 -9 7 -17 11 -17 7 0 -3 -12 -1 -26 4 -14 6 -23 6 -20 1 3 -5 -1
-12 -10 -15 -24 -9 -31 -7 -14 4 11 7 8 9 -15 8 -16 -1 -33 -7 -37 -13 -5 -6
-8 -6 -8 3 0 6 -8 12 -18 12 -10 0 -24 -6 -31 -12 -9 -8 -11 -8 -8 -2 4 7 0
15 -9 18 -8 3 -13 2 -10 -3 3 -5 -1 -12 -10 -15 -24 -9 -31 -7 -14 5 12 8 12
10 -5 8 -11 -1 -31 -1 -45 0 -20 1 -22 3 -10 11 8 5 10 10 4 10 -6 0 -11 7
-11 15 0 8 5 15 11 15 6 0 5 4 -2 9 -8 4 -13 11 -13 15 3 20 -1 26 -18 26 -22
0 -40 20 -19 20 9 1 7 5 -5 14 -17 13 -17 14 0 21 17 6 17 7 0 20 -13 10 -15
14 -5 18 12 5 -15 11 -34 8 -7 -1 -10 8 -7 25 0 4 -5 11 -13 15 -10 7 -8 9 7
10 11 0 14 3 8 6 -7 2 -13 13 -13 24 0 10 -5 19 -11 19 -5 0 -7 6 -3 13 5 7 0
6 -11 -3 -10 -8 -16 -10 -12 -4 4 7 0 15 -9 18 -14 5 -14 9 -3 23 16 19 16 23
-3 34 -10 7 -10 9 0 9 6 0 12 5 12 11 0 5 -4 7 -10 4 -12 -7 -2 23 14 44 8 11
8 13 -1 8 -6 -4 -14 -3 -18 3 -3 5 0 10 7 10 9 0 9 3 -2 10 -8 5 -10 10 -5 10
6 0 11 9 11 20 0 11 -3 20 -7 20 -4 0 -6 8 -4 18 4 24 -5 35 -19 23 -8 -7 -17
-6 -26 1 -12 8 -11 9 5 4 20 -6 20 -6 1 9 -11 8 -14 15 -8 15 10 0 10 5 2 20
-9 16 -8 20 7 21 14 0 13 2 -4 9 -13 5 -23 15 -23 21 0 8 -5 8 -16 -1 -8 -8
-14 -9 -13 -4 1 5 -1 17 -6 28 -5 12 -3 21 6 27 8 5 9 9 2 9 -6 0 -9 8 -6 19
3 10 -1 22 -8 26 -8 6 -10 4 -4 -6 7 -11 6 -12 -7 -2 -8 7 -17 10 -20 7 -3 -2
-8 2 -12 11 -4 10 -2 14 5 9 8 -4 7 0 0 15 -7 11 -14 21 -17 21 -3 0 -2 -5 1
-10 4 -6 -4 -6 -19 1 -16 8 -23 18 -21 30 2 10 -1 22 -7 25 -7 5 -8 2 -4 -7 4
-8 0 -5 -8 5 -10 13 -16 15 -16 7 0 -11 -3 -11 -15 -1 -8 7 -15 8 -15 3 0 -14
-35 -9 -56 8 -11 9 -15 9 -10 2 4 -7 3 -13 -3 -13 -6 0 -17 -12 -25 -27 -8
-16 -18 -28 -23 -28 -4 0 -7 -4 -5 -8 1 -5 -2 -5 -8 -2 -6 4 -9 9 -6 12 3 3
-2 12 -10 20 -10 11 -12 19 -5 27 7 9 7 17 -2 26 -9 10 -9 11 1 6 7 -4 12 -1
12 8 0 8 5 18 12 22 8 5 9 2 4 -12 -7 -18 -6 -18 12 1 11 11 19 22 19 25 -1
14 16 39 24 34 5 -3 16 1 24 10 18 18 20 29 3 21 -7 -4 -4 1 7 9 11 9 26 14
33 11 8 -3 12 0 9 7 -2 7 3 19 12 26 10 8 10 11 2 6 -9 -5 -12 -3 -7 5 4 6 12
9 17 6 11 -8 43 15 47 33 1 8 -2 11 -8 7 -6 -4 -10 6 -10 24 0 16 5 33 12 37
6 4 8 3 5 -4 -5 -6 1 -6 17 1 16 8 21 14 13 19 -8 5 -8 8 -1 8 13 0 15 31 2
47 -6 7 -4 14 3 19 8 5 10 3 4 -7 -5 -8 -4 -11 0 -6 11 9 14 48 4 42 -12 -8
-17 33 -5 46 8 9 8 10 -4 3 -25 -14 -39 -13 -33 4 4 9 2 13 -4 9 -7 -5 -11 6
-11 28 0 34 -20 65 -42 65 -6 0 -8 5 -5 10 3 6 1 10 -4 10 -6 0 -11 7 -11 15
0 9 -6 12 -16 8 -10 -4 -17 1 -21 16 -3 11 -10 21 -15 21 -5 0 -6 5 -3 10 8
13 -18 8 -27 -5 -5 -6 -8 -5 -8 3 0 6 -8 12 -18 12 -10 0 -24 -6 -31 -12 -11
-10 -13 -10 -7 0 4 7 2 12 -6 12 -8 0 -20 -6 -27 -12 -11 -10 -13 -10 -7 0 4
7 2 12 -6 12 -8 0 -20 -6 -27 -12 -11 -10 -13 -10 -7 0 9 15 -20 17 -29 2 -5
-8 -11 -7 -21 1 -11 9 -17 9 -28 0 -10 -9 -16 -9 -21 -1 -4 6 -13 9 -20 6 -7
-2 -17 0 -23 6 -8 8 -17 0 -32 -26z m155 -86 c-3 -5 -2 -10 4 -10 5 0 13 5 16
10 3 6 12 10 18 10 7 0 6 -4 -3 -10 -9 -6 -10 -10 -3 -10 6 0 15 5 18 11 5 6
13 3 22 -10 8 -12 21 -21 29 -21 8 0 12 -4 9 -10 -6 -10 9 -15 30 -10 5 1 7
-2 3 -6 -4 -4 0 -13 10 -21 9 -8 11 -12 5 -8 -9 4 -11 1 -7 -10 4 -9 15 -15
28 -13 19 3 21 -2 21 -57 0 -33 5 -63 10 -67 6 -5 5 -8 -3 -8 -7 0 -11 -4 -7
-9 3 -5 0 -13 -6 -17 -8 -4 -9 -3 -5 4 9 15 -14 15 -34 1 -12 -9 -11 -10 5 -5
17 5 16 3 -5 -15 -14 -11 -18 -17 -10 -13 11 5 12 4 4 -5 -6 -7 -20 -13 -31
-14 -12 0 -19 -6 -16 -13 2 -7 -1 -15 -6 -19 -6 -3 -9 -11 -5 -16 3 -5 2 -9
-3 -8 -22 4 -43 -2 -38 -11 3 -5 1 -10 -4 -10 -6 0 -11 -5 -11 -11 0 -5 5 -7
12 -3 7 4 8 3 4 -4 -5 -9 -13 -9 -26 -2 -15 8 -19 7 -17 -2 2 -7 -3 2 -11 20
-9 20 -20 31 -28 28 -16 -6 -38 30 -28 46 5 7 3 8 -5 3 -13 -7 -36 13 -57 50
-6 10 -17 21 -25 23 -8 2 -5 -3 6 -12 20 -17 19 -17 -3 -6 -17 8 -22 18 -19
31 3 10 0 19 -6 19 -7 0 -4 5 6 11 17 10 17 12 2 29 -11 12 -13 20 -5 25 5 3
8 10 5 15 -3 4 3 14 12 21 14 12 15 12 9 0 -6 -8 0 -7 18 4 30 20 34 30 9 21
-15 -6 -15 -4 2 14 10 11 26 20 36 20 12 0 16 5 13 15 -4 9 5 19 28 29 42 18
40 18 33 6z m100 -18 c-3 -3 -11 0 -18 7 -9 10 -8 11 6 5 10 -3 15 -9 12 -12z
m-258 -719 c0 -7 -5 -9 -10 -6 -6 4 -7 1 -1 -8 11 -18 11 -49 1 -72 -7 -15
-11 -16 -25 -5 -12 10 -14 10 -8 1 4 -7 3 -13 -3 -13 -5 0 -8 -12 -6 -26 2
-19 -1 -24 -14 -19 -9 3 -5 -4 9 -15 20 -17 21 -19 5 -14 -15 5 -17 4 -9 -5 6
-6 9 -24 6 -40 -3 -24 -8 -29 -28 -26 -21 2 -22 0 -12 -13 9 -11 9 -14 1 -9
-18 11 -26 -12 -11 -30 11 -14 11 -16 -2 -8 -13 8 -13 7 -1 -8 7 -9 9 -17 4
-17 -5 0 -10 -7 -10 -15 0 -8 4 -12 9 -9 4 3 8 0 8 -5 0 -6 -6 -11 -12 -11 -9
0 -8 -4 2 -10 12 -8 12 -10 1 -10 -10 0 -11 -3 -2 -14 9 -10 8 -16 -4 -26 -8
-7 -12 -17 -8 -23 3 -6 1 -7 -5 -3 -7 4 -12 2 -12 -4 0 -7 -7 -10 -15 -7 -11
5 -12 1 -5 -19 7 -17 7 -23 0 -19 -14 9 -12 -8 3 -24 10 -11 9 -13 -1 -7 -9 6
-11 0 -7 -25 3 -18 9 -37 12 -42 3 -6 1 -7 -5 -3 -7 4 -12 1 -12 -9 0 -10 5
-14 13 -9 9 5 9 4 0 -6 -12 -13 -7 -40 9 -40 5 0 6 5 2 11 -4 8 0 8 15 0 22
-12 30 -27 9 -16 -7 4 -4 -1 6 -9 15 -12 16 -16 5 -16 -11 0 -12 -2 0 -9 9 -6
10 -10 2 -16 -9 -5 -9 -11 1 -23 10 -12 10 -14 1 -8 -16 9 -17 -6 -1 -22 9 -9
9 -12 -2 -12 -11 0 -11 -3 -2 -12 9 -9 8 -16 -5 -30 -16 -18 -16 -18 2 -12 12
5 16 4 11 -4 -8 -13 28 -35 39 -24 4 4 5 -6 3 -23 -2 -18 -9 -30 -18 -30 -8 0
-21 -4 -27 -8 -9 -6 -11 -3 -6 10 6 15 4 16 -9 6 -12 -11 -19 -8 -39 13 -21
23 -22 25 -4 19 11 -3 9 0 -5 7 -31 15 -50 33 -50 46 0 6 -7 13 -16 16 -8 3
-12 2 -9 -4 3 -6 1 -10 -4 -10 -6 0 -11 5 -11 11 0 8 -5 8 -15 -1 -12 -10 -15
-10 -15 0 0 8 -4 9 -12 3 -7 -5 -19 -8 -25 -7 -7 1 -17 2 -23 3 -5 0 -10 9
-10 19 0 14 -2 15 -10 2 -5 -8 -10 -10 -10 -4 0 5 5 15 12 22 9 9 9 12 0 12
-18 0 -15 14 9 44 16 21 24 24 35 16 10 -9 12 -6 8 16 -3 16 0 31 8 35 9 6 8
9 -6 9 -20 0 -20 0 0 16 10 8 13 12 5 8 -9 -5 -12 -3 -7 5 4 6 11 9 16 6 17
-10 41 27 36 56 -2 16 0 29 5 29 6 0 7 5 4 10 -3 6 0 10 8 10 20 0 50 47 36
56 -8 4 -7 9 2 15 12 7 12 9 0 9 -11 0 -11 3 0 17 10 11 10 14 2 9 -7 -4 -13
-3 -13 3 0 5 5 13 10 16 7 4 7 13 0 26 -8 14 -7 19 2 19 10 0 11 2 0 8 -9 6
-5 12 13 22 14 7 25 17 25 22 0 5 6 6 13 2 10 -6 10 -4 0 7 -15 16 -17 33 -3
24 5 -3 8 0 5 7 -10 31 -12 78 -4 78 6 0 7 5 3 12 -4 7 -8 22 -9 34 0 17 4 21
22 19 19 -2 21 0 12 12 -10 11 -8 12 6 7 12 -5 16 -4 11 4 -3 6 -2 13 4 17 6
4 8 10 6 14 -3 4 1 8 9 8 8 0 12 -5 9 -11 -3 -6 2 -2 10 9 9 11 14 25 11 33
-2 7 -1 11 4 8 5 -3 11 0 14 7 6 16 44 17 44 0z m209 -26 c2 -18 -1 -25 -8
-21 -7 5 -8 2 -2 -7 5 -8 9 -21 9 -29 0 -8 7 -15 15 -16 44 -3 46 -4 30 -14
-8 -5 -10 -10 -3 -10 13 0 12 -18 -1 -39 -7 -10 -6 -12 4 -6 10 6 12 4 7 -8
-4 -11 -1 -17 9 -17 8 0 13 -4 10 -9 -3 -5 2 -8 11 -7 19 1 25 -22 11 -41 -6
-7 -4 -14 3 -19 8 -5 9 -3 4 6 -5 9 -4 11 4 6 8 -5 9 -12 3 -19 -17 -20 -10
-65 11 -84 11 -10 18 -13 14 -7 -3 6 0 11 8 11 8 0 12 -4 9 -9 -3 -4 1 -8 8
-9 10 0 11 -2 0 -6 -10 -4 -10 -8 -1 -19 9 -11 8 -14 -7 -14 -13 0 -15 -3 -7
-8 7 -4 10 -21 8 -40 -3 -23 -1 -31 8 -26 9 5 9 3 0 -7 -7 -7 -13 -20 -13 -28
0 -13 2 -14 9 -2 7 10 9 7 8 -12 -1 -14 -5 -23 -8 -21 -4 2 -10 -3 -13 -12 -3
-8 -2 -13 3 -10 5 3 11 -3 14 -14 3 -11 1 -23 -4 -26 -14 -8 -11 -26 4 -18 10
6 10 4 0 -7 -15 -16 -17 -33 -3 -24 6 4 7 -2 1 -17 -6 -15 -5 -31 1 -42 8 -15
8 -17 -2 -11 -10 6 -12 3 -7 -10 6 -14 3 -16 -13 -12 -11 3 -23 0 -27 -5 -3
-6 -1 -8 5 -4 6 3 13 2 17 -4 6 -9 -16 -15 -40 -10 -5 1 -4 -4 3 -11 15 -16
16 -33 0 -23 -7 5 -8 3 -2 -7 13 -22 12 -56 -2 -56 -10 0 -11 4 -3 14 8 9 8
13 1 13 -6 0 -14 -9 -17 -20 -4 -11 -11 -17 -17 -14 -7 5 -9 1 -5 -9 4 -10 1
-17 -6 -17 -7 0 -23 -9 -37 -20 -21 -17 -22 -19 -5 -14 19 5 19 5 3 -9 -10 -8
-14 -18 -10 -22 4 -5 -1 -5 -11 -2 -10 4 -23 7 -28 7 -6 0 -7 5 -4 10 3 6 1
10 -5 10 -6 0 -9 4 -5 9 3 5 -3 12 -14 16 -10 3 -27 15 -37 28 -16 19 -17 20
-1 8 15 -12 17 -12 11 3 -3 9 -16 16 -28 16 -30 0 -37 9 -26 31 7 12 6 20 -1
25 -8 5 -8 8 0 13 7 5 2 15 -14 29 -15 13 -25 17 -25 9 0 -8 -3 -7 -9 3 -6 8
-7 18 -5 22 3 4 0 8 -6 8 -7 0 -5 7 4 16 21 20 20 25 -1 17 -14 -5 -15 -3 -6
7 6 7 9 19 6 28 -5 11 -2 13 8 7 11 -6 12 -5 2 6 -16 16 -17 33 -1 23 7 -5 8
-3 3 7 -11 17 -12 50 -2 66 4 6 2 15 -4 19 -8 5 -9 3 -4 -6 6 -9 4 -11 -4 -6
-9 6 -8 12 4 26 12 14 13 20 4 26 -8 5 -10 3 -4 -6 5 -8 4 -11 -3 -6 -15 9 -3
38 12 29 6 -3 3 3 -7 14 -18 21 -13 58 7 46 6 -3 6 -1 -1 8 -7 7 -13 17 -13
22 0 4 6 5 13 2 6 -4 3 1 -8 11 -17 14 -17 16 -2 11 11 -4 20 -1 23 8 3 8 12
11 21 8 11 -4 14 -2 9 5 -4 7 -2 12 5 12 10 0 10 3 1 12 -13 13 -16 32 -4 24
4 -2 8 9 7 25 0 21 -4 28 -14 24 -11 -4 -11 -2 -3 8 7 8 10 16 7 18 -2 3 5 11
17 18 16 10 19 10 12 -1 -4 -7 2 -4 14 6 17 15 19 22 11 33 -7 7 -7 13 -2 13
6 0 9 11 8 25 -2 14 1 25 6 25 6 0 7 5 3 12 -4 7 -3 8 4 4 7 -4 20 -2 29 3 11
6 13 11 5 11 -7 0 -10 5 -7 10 4 6 1 18 -6 26 -10 12 -9 13 4 8 11 -4 15 0 13
13 -5 27 2 33 26 24 13 -5 22 -18 24 -34z m208 11 c8 -12 12 -26 9 -31 -3 -6
-1 -7 5 -3 14 8 44 -22 36 -36 -5 -7 1 -9 15 -5 18 4 20 3 11 -8 -9 -11 -7
-12 7 -9 14 4 19 -1 21 -21 1 -14 -2 -24 -6 -21 -5 3 -9 -2 -9 -10 0 -9 6 -13
14 -10 9 4 11 2 6 -7 -4 -6 -8 -19 -8 -27 0 -8 -4 -21 -9 -29 -6 -9 -5 -12 1
-8 7 4 10 -7 9 -30 -1 -25 4 -38 14 -40 13 -4 13 -3 0 6 -8 6 -10 11 -4 11 5
0 19 -7 30 -16 10 -8 13 -13 7 -9 -9 4 -11 1 -7 -9 3 -9 11 -13 18 -9 8 5 8 3
0 -8 -6 -8 -11 -27 -12 -44 -1 -23 1 -26 8 -15 11 17 13 10 4 -14 -3 -9 -9
-14 -13 -11 -4 2 -8 -3 -8 -11 0 -9 6 -13 14 -10 9 4 11 2 6 -7 -11 -18 -12
-37 -2 -37 5 0 9 -8 9 -17 0 -15 2 -16 10 -3 8 13 10 12 10 -3 0 -10 4 -16 9
-13 5 3 11 -1 15 -9 3 -8 2 -15 -2 -15 -4 0 -7 -12 -6 -27 2 -40 2 -40 27 -39
14 1 21 -4 19 -13 -2 -8 3 -18 10 -23 11 -8 11 -10 0 -15 -10 -4 -10 -8 0 -21
11 -13 11 -14 -2 -7 -13 8 -13 6 -1 -8 7 -9 17 -14 22 -11 5 3 9 0 9 -6 0 -7
6 -10 13 -7 7 3 12 -4 12 -18 0 -13 -4 -21 -8 -18 -5 3 -4 -4 2 -16 8 -15 9
-21 1 -21 -6 0 -9 -4 -6 -9 3 -5 -1 -12 -10 -15 -8 -3 -13 -2 -10 3 6 9 -71 7
-81 -2 -3 -4 -15 -1 -27 5 -11 6 -18 7 -14 3 4 -4 2 -17 -4 -29 -7 -11 -11
-24 -10 -27 1 -4 -7 -5 -17 -2 -10 3 -22 -1 -26 -8 -6 -8 -4 -10 4 -4 10 6 11
3 2 -13 -6 -12 -17 -24 -24 -28 -8 -5 -7 -2 2 9 17 22 7 22 -14 0 -14 -14 -18
-14 -26 -2 -7 12 -9 12 -9 -1 0 -13 -1 -13 -10 0 -7 11 -10 11 -10 2 0 -7 -4
-11 -10 -7 -5 3 -6 13 -3 22 5 12 3 14 -8 9 -8 -4 -6 -1 3 7 10 8 14 18 10 23
-4 4 2 2 12 -6 11 -8 17 -10 13 -3 -4 6 -3 14 3 18 5 3 10 1 10 -6 0 -7 3 -10
6 -7 3 4 1 15 -5 27 -8 14 -8 22 1 27 7 5 8 3 3 -6 -5 -8 -4 -11 3 -6 14 9 3
38 -12 30 -6 -3 -2 2 8 10 18 15 18 16 2 16 -9 0 -14 5 -11 10 4 6 11 8 16 5
5 -3 6 1 3 9 -3 9 -11 13 -18 9 -7 -4 -7 -1 1 7 10 11 10 17 0 29 -10 12 -9
14 4 9 9 -4 16 -1 16 8 0 7 -4 11 -9 8 -5 -3 -7 9 -6 26 3 34 22 58 33 40 11
-17 26 0 19 22 -4 15 -3 18 6 13 9 -5 11 -4 6 4 -4 6 -9 23 -12 37 -3 19 -1
24 8 18 10 -6 11 -5 1 8 -7 8 -10 18 -6 21 3 4 1 7 -6 7 -7 0 -10 4 -7 8 2 4
1 14 -5 22 -5 10 -9 11 -9 3 0 -7 -6 -10 -14 -7 -8 3 -13 17 -12 35 1 17 -1
32 -6 35 -5 3 -5 11 -1 17 4 7 6 25 4 41 -2 21 1 26 11 21 10 -6 10 -5 1 5 -9
10 -9 19 -1 34 9 17 8 19 -3 8 -11 -10 -16 -8 -27 10 -10 17 -12 18 -7 4 5
-16 3 -17 -10 -6 -8 7 -12 16 -9 21 3 5 1 9 -3 9 -5 0 -9 9 -9 19 0 11 3 18 6
16 4 -2 7 9 7 25 0 16 -5 27 -10 23 -5 -3 -4 4 2 16 9 17 9 21 -1 19 -7 -2
-12 3 -10 10 1 8 -1 11 -6 8 -16 -10 -31 10 -35 50 -3 36 -1 40 19 42 14 1 29
-7 38 -20z m-1268 -828 c3 0 2 5 -1 10 -3 6 -4 10 -1 10 2 0 11 3 20 6 11 4
16 0 16 -12 0 -11 4 -15 8 -9 11 16 96 29 86 13 -3 -4 6 -8 19 -8 14 0 28 -7
31 -16 3 -8 2 -12 -4 -9 -14 9 -12 -8 3 -24 10 -12 9 -13 -7 -7 -19 6 -19 6
-3 -12 9 -10 15 -21 12 -24 -3 -2 3 -5 12 -5 10 0 21 5 25 11 5 8 8 7 8 -1 0
-8 11 -11 30 -9 17 2 33 -1 36 -6 9 -13 44 22 44 44 0 20 20 26 21 6 0 -10 2
-10 6 0 2 6 9 10 13 7 5 -3 6 -13 3 -22 -4 -10 -2 -14 4 -10 6 4 13 -3 16 -14
5 -20 7 -20 28 -5 17 11 26 13 36 4 7 -6 16 -8 20 -5 3 4 12 2 20 -4 10 -9 13
-8 13 0 0 7 5 9 11 6 6 -4 8 -14 5 -22 -4 -9 -2 -11 6 -7 7 5 9 2 5 -9 -4 -11
-2 -14 9 -10 8 3 20 0 27 -5 7 -6 18 -7 26 -2 22 13 52 -10 40 -31 -7 -14 -5
-17 10 -14 12 2 23 -5 31 -21 8 -13 17 -24 22 -24 5 0 7 -4 4 -9 -7 -11 13 -9
32 2 7 5 12 3 12 -5 0 -9 3 -9 10 2 7 12 10 12 10 1 0 -7 6 -11 15 -7 19 7 15
-14 -5 -32 -11 -10 -11 -12 -1 -6 10 5 12 3 7 -5 -6 -9 -11 -9 -24 1 -9 8 -13
8 -9 2 9 -15 -55 -14 -65 1 -5 6 -8 5 -8 -2 0 -7 -7 -13 -15 -13 -8 0 -15 6
-16 13 0 9 -2 9 -6 0 -3 -9 -10 -10 -24 -3 -14 8 -19 7 -19 -2 0 -8 -3 -9 -8
-3 -9 13 -35 18 -27 5 8 -13 -1 -13 -27 1 -15 8 -19 8 -14 0 4 -6 2 -11 -3
-11 -6 0 -11 5 -11 10 0 6 -4 10 -10 10 -5 0 -10 -7 -10 -16 0 -14 -1 -14 -16
0 -11 12 -20 13 -33 6 -10 -5 -21 -7 -24 -3 -10 10 -67 11 -67 1 0 -14 -18 0
-31 24 -9 16 -8 19 3 12 10 -6 9 -3 -2 10 -10 13 -16 14 -18 6 -3 -9 -7 -9
-14 1 -8 11 -11 11 -15 1 -4 -10 -8 -10 -19 -1 -11 9 -14 8 -14 -2 0 -11 -2
-11 -10 1 -7 10 -12 12 -17 4 -5 -7 -16 -8 -28 -3 -12 4 -14 8 -6 8 11 1 10 4
-4 14 -10 8 -15 19 -11 25 5 8 2 10 -8 6 -10 -4 -16 -1 -16 7 0 8 -6 5 -15 -7
-8 -10 -15 -14 -15 -9 0 6 -9 11 -20 12 -12 1 -18 -3 -14 -9 4 -7 0 -7 -13 1
-11 6 -23 7 -27 4 -3 -3 -6 -1 -6 6 0 7 -5 9 -10 6 -6 -4 -10 -3 -9 2 3 18 -1
36 -8 29 -4 -3 -13 4 -21 16 -11 19 -12 19 -7 3 4 -15 3 -17 -5 -9 -6 6 -12
20 -13 32 0 12 -3 19 -6 17 -2 -3 -10 0 -17 6 -10 9 -15 7 -20 -5 -3 -9 -10
-16 -16 -16 -5 0 -6 5 -2 12 5 8 2 9 -10 5 -10 -4 -15 -3 -11 3 3 6 -2 10 -12
10 -15 0 -16 2 -3 10 11 7 11 10 2 10 -10 0 -10 3 0 14 9 9 18 11 30 5 14 -8
16 -6 11 7 -4 11 -2 15 4 11 6 -4 10 0 9 9 0 9 7 18 17 20 11 1 21 5 24 8 3 3
12 -1 20 -9 8 -8 17 -15 19 -15z m1934 15 c0 4 8 1 17 -6 9 -8 14 -9 10 -3 -4
7 0 14 8 18 8 3 15 0 15 -6 0 -9 3 -9 12 0 9 9 16 8 32 -6 11 -9 16 -12 13 -6
-4 7 0 14 8 18 8 3 15 0 15 -6 0 -7 4 -7 13 0 9 8 21 7 40 -3 19 -10 26 -10
21 -2 -5 8 -2 8 7 -1 12 -11 12 -14 -1 -22 -11 -7 -11 -10 -2 -10 14 0 12 -44
-3 -57 -4 -4 -5 -1 -1 7 4 8 1 7 -8 -4 -8 -10 -19 -15 -25 -11 -7 3 -8 0 -5
-9 3 -9 1 -16 -6 -16 -6 0 -8 -4 -5 -10 3 -5 -2 -10 -12 -10 -10 0 -27 -12
-37 -27 -11 -14 -14 -23 -8 -19 6 3 13 2 16 -3 4 -6 -7 -8 -24 -6 -17 2 -28 1
-26 -4 3 -4 -1 -8 -9 -8 -8 0 -12 4 -9 9 7 12 -10 10 -23 -3 -7 -7 -15 -5 -27
6 -15 15 -16 15 -16 0 0 -9 -4 -14 -9 -11 -5 3 -15 -2 -22 -11 -8 -9 -9 -14
-3 -10 6 3 11 0 11 -8 0 -8 -4 -12 -9 -9 -5 3 -16 0 -25 -8 -12 -9 -15 -9 -9
0 9 15 -6 16 -22 0 -7 -7 -12 -8 -12 -2 0 5 -9 10 -20 11 -11 1 -18 -3 -14 -8
7 -12 -19 -7 -28 6 -5 6 -8 5 -8 -3 0 -8 -5 -10 -12 -6 -10 6 -10 4 -2 -7 8
-10 6 -18 -8 -31 -12 -12 -18 -14 -19 -5 0 9 -2 9 -6 -1 -4 -10 -8 -10 -21 0
-12 10 -14 10 -8 1 4 -8 1 -13 -9 -13 -9 0 -14 4 -11 8 2 4 -4 8 -15 8 -10 0
-19 -6 -19 -14 0 -10 -4 -10 -16 2 -11 11 -21 13 -33 7 -10 -6 -23 -6 -31 -1
-10 6 -21 3 -34 -8 -11 -9 -17 -12 -13 -7 3 6 2 17 -4 25 -7 12 -9 12 -9 -4 0
-16 -2 -17 -17 -5 -11 10 -14 10 -9 2 4 -7 2 -13 -3 -13 -6 0 -11 6 -11 13 0
8 -4 7 -10 -3 -9 -13 -10 -13 -10 0 0 13 -2 13 -9 1 -8 -12 -15 -13 -35 -3
-21 9 -27 9 -35 -6 -7 -11 -10 -13 -11 -3 0 7 -6 11 -13 8 -7 -2 -23 3 -35 13
-20 17 -20 19 -5 31 14 12 16 12 8 -1 -5 -9 0 -8 13 4 15 13 22 15 22 6 0 -10
4 -9 17 1 14 12 16 12 9 0 -6 -9 -5 -12 5 -9 8 3 13 11 11 17 -1 6 2 11 8 11
5 0 10 7 10 16 0 10 6 14 15 10 8 -3 15 -1 15 5 0 6 6 7 13 3 7 -5 7 -1 -3 12
-8 10 -10 16 -6 12 5 -5 16 1 23 12 11 16 18 18 33 10 13 -7 21 -7 25 1 4 6
13 8 20 5 20 -7 26 5 12 22 -8 10 -8 13 -1 9 7 -4 14 0 17 8 5 11 13 12 37 5
19 -5 28 -5 25 1 -4 5 -4 9 -1 9 2 0 13 3 23 6 15 5 15 4 3 -5 -11 -8 -6 -10
23 -8 29 2 36 5 32 18 -3 9 0 21 7 26 16 12 49 13 42 1 -3 -4 1 -8 8 -8 9 0 9
-3 -2 -10 -13 -8 -12 -10 3 -10 10 0 16 -4 13 -8 -3 -5 8 -9 25 -10 20 0 27 3
22 11 -4 7 0 6 10 -2 13 -10 20 -11 31 -2 11 9 16 9 22 0 5 -8 3 -9 -6 -4 -9
5 -11 4 -6 -4 6 -8 12 -9 20 -2 7 6 16 9 19 6 4 -3 5 -2 2 2 -3 3 1 13 8 21 8
10 8 13 1 9 -7 -4 -14 0 -18 8 -3 8 -1 17 4 20 6 3 15 16 20 28 11 21 11 21
-4 3 -9 -11 -16 -15 -16 -10 0 20 23 34 37 23 7 -7 13 -8 13 -4z m-1610 -79
c0 -2 -8 -10 -17 -17 -16 -13 -17 -12 -4 4 13 16 21 21 21 13z"/>
<path d="M735 670 c-3 -5 -1 -10 4 -10 6 0 11 5 11 10 0 6 -2 10 -4 10 -3 0
-8 -4 -11 -10z"/>
</g>
</svg>
